grf
version=1
nRows=12
nColumns=37
inDegrees=no
endheader
time	ground_force_1_vx	ground_force_1_vy	ground_force_1_vz	ground_force_1_px	ground_force_1_py	ground_force_1_pz	ground_moment_1_mx	ground_moment_1_my	ground_moment_1_mz	ground_force_2_vx	ground_force_2_vy	ground_force_2_vz	ground_force_2_px	ground_force_2_py	ground_force_2_pz	ground_moment_2_mx	ground_moment_2_my	ground_moment_2_mz	ground_force_3_vx	ground_force_3_vy	ground_force_3_vz	ground_force_3_px	ground_force_3_py	ground_force_3_pz	ground_moment_3_mx	ground_moment_3_my	ground_moment_3_mz	ground_force_4_vx	ground_force_4_vy	ground_force_4_vz	ground_force_4_px	ground_force_4_py	ground_force_4_pz	ground_moment_4_mx	ground_moment_4_my	ground_moment_4_mz
      6.30000000	      0.00000000	     -0.00000000	      0.00000000	      0.00000000	      0.00000000	      0.00000000	      0.00000000	      0.00000000	      0.00000000	    -29.25549316	    155.81663513	   -885.97381592	   -306.86360754	  -1180.10236690	      0.00000000	      0.00000000	      0.00000000	   4000.38395266	    -28.17244172	   -155.39048521	   -965.38012695	   -359.16559691	   -709.82165976	      0.00000000	      0.00000000	     -0.00000000	  -7557.05985531	      0.00000000	     -0.00000000	      0.00000000	      0.00000000	      0.00000000	      0.00000000	      0.00000000	      0.00000000	      0.00000000
      6.31000000	      0.00000000	     -0.00000000	      0.00000000	      0.00000000	      0.00000000	      0.00000000	      0.00000000	      0.00000000	      0.00000000	    -48.01683426	    150.82504272	   -841.43267822	   -302.98737686	  -1179.89608925	      0.00000000	      0.00000000	      0.00000000	   3678.58495529	    -16.87120042	   -151.11840673	   -937.95172119	   -359.19108983	   -709.77934047	      0.00000000	     -0.00000000	     -0.00000000	  -6935.34413255	      0.00000000	     -0.00000000	      0.00000000	      0.00000000	      0.00000000	      0.00000000	      0.00000000	      0.00000000	      0.00000000
      6.32000000	      0.00000000	     -0.00000000	      0.00000000	      0.00000000	      0.00000000	      0.00000000	      0.00000000	      0.00000000	      0.00000000	    -54.40898132	    150.52986145	   -812.23138428	   -302.79524233	  -1179.56484209	      0.00000000	      0.00000000	      0.00000000	   3096.11802588	     -0.64334268	   -150.04220575	   -910.71936035	   -360.39067211	   -709.80903722	      0.00000000	     -0.00000000	     -0.00000000	  -6435.30394638	      0.00000000	     -0.00000000	      0.00000000	      0.00000000	      0.00000000	      0.00000000	      0.00000000	      0.00000000	      0.00000000
      6.33000000	      0.00000000	     -0.00000000	      0.00000000	      0.00000000	      0.00000000	      0.00000000	      0.00000000	      0.00000000	      0.00000000	    -39.80990601	    146.14239502	   -798.32373047	   -306.71406212	  -1178.62581018	      0.00000000	      0.00000000	      0.00000000	   3068.53226145	     -5.11600041	   -139.09252885	   -861.56127930	   -358.82139735	   -710.23304402	      0.00000000	      0.00000000	     -0.00000000	  -6353.07506318	      0.00000000	     -0.00000000	      0.00000000	      0.00000000	      0.00000000	      0.00000000	      0.00000000	      0.00000000	      0.00000000
      6.34000000	      0.00000000	     -0.00000000	      0.00000000	      0.00000000	      0.00000000	      0.00000000	      0.00000000	      0.00000000	      0.00000000	    -21.17036438	    135.20706177	   -780.31311035	   -311.39604760	  -1176.73193447	      0.00000000	      0.00000000	      0.00000000	   3867.28354412	    -12.50823159	   -124.83985029	   -800.11474609	   -356.43724031	   -710.18800765	      0.00000000	      0.00000000	     -0.00000000	  -6269.44411090	      0.00000000	     -0.00000000	      0.00000000	      0.00000000	      0.00000000	      0.00000000	      0.00000000	      0.00000000	      0.00000000
      6.35000000	      0.00000000	     -0.00000000	      0.00000000	      0.00000000	      0.00000000	      0.00000000	      0.00000000	      0.00000000	      0.00000000	    -14.36289215	    119.76960754	   -746.13671875	   -313.29766872	  -1176.01889420	      0.00000000	      0.00000000	      0.00000000	   4401.97210584	    -13.56117781	   -115.39425541	   -740.17138672	   -355.00538399	   -709.83280682	      0.00000000	      0.00000000	     -0.00000000	  -6096.00164097	      0.00000000	     -0.00000000	      0.00000000	      0.00000000	      0.00000000	      0.00000000	      0.00000000	      0.00000000	      0.00000000
      6.36000000	      0.00000000	     -0.00000000	      0.00000000	      0.00000000	      0.00000000	      0.00000000	      0.00000000	      0.00000000	      0.00000000	    -22.81401253	    108.51659393	   -692.35211182	   -311.41299760	  -1176.08667583	      0.00000000	      0.00000000	      0.00000000	   4331.67915377	    -13.52254667	   -107.95242954	   -688.10534668	   -353.93478857	   -709.42516123	      0.00000000	      0.00000000	     -0.00000000	  -5326.69934173	      0.00000000	     -0.00000000	      0.00000000	      0.00000000	      0.00000000	      0.00000000	      0.00000000	      0.00000000	      0.00000000
      6.37000000	      0.00000000	     -0.00000000	      0.00000000	      0.00000000	      0.00000000	      0.00000000	      0.00000000	      0.00000000	      0.00000000	    -32.78120804	    102.01339722	   -635.04638672	   -308.20712685	  -1175.66939008	      0.00000000	     -0.00000000	      0.00000000	   3289.53241833	    -14.73783974	    -98.62885156	   -633.23339844	   -352.78996636	   -708.95336436	      0.00000000	      0.00000000	     -0.00000000	  -5036.82801393	      0.00000000	     -0.00000000	      0.00000000	      0.00000000	      0.00000000	      0.00000000	      0.00000000	      0.00000000	      0.00000000
      6.38000000	      0.00000000	     -0.00000000	      0.00000000	      0.00000000	      0.00000000	      0.00000000	      0.00000000	      0.00000000	      0.00000000	    -35.04751968	     96.62768555	   -590.20465088	   -307.27913974	  -1176.44457804	      0.00000000	      0.00000000	      0.00000000	   2711.11230764	    -16.50021374	    -88.55798959	   -576.72283936	   -350.75281570	   -708.93110455	      0.00000000	      0.00000000	      0.00000000	  -4748.47541655	      0.00000000	     -0.00000000	      0.00000000	      0.00000000	      0.00000000	      0.00000000	      0.00000000	      0.00000000	      0.00000000
      6.39000000	      0.00000000	     -0.00000000	      0.00000000	      0.00000000	      0.00000000	      0.00000000	      0.00000000	      0.00000000	      0.00000000	    -32.30654144	     90.58257294	   -552.05780029	   -307.38400129	  -1176.68044741	      0.00000000	      0.00000000	      0.00000000	   2103.25223123	    -16.62722323	    -78.84322212	   -527.85400391	   -349.20665133	   -708.04172384	      0.00000000	      0.00000000	     -0.00000000	  -4651.02425914	      0.00000000	     -0.00000000	      0.00000000	      0.00000000	      0.00000000	      0.00000000	      0.00000000	      0.00000000	      0.00000000
      6.40000000	      0.00000000	     -0.00000000	      0.00000000	      0.00000000	      0.00000000	      0.00000000	      0.00000000	      0.00000000	      0.00000000	    -26.44367218	     84.74954987	   -521.24029541	   -309.67679606	  -1177.42881283	      0.00000000	      0.00000000	      0.00000000	   1911.72842322	    -14.72599654	    -71.40044274	   -483.51458740	   -348.12745255	   -708.08778505	      0.00000000	      0.00000000	     -0.00000000	  -4516.44522397	      0.00000000	     -0.00000000	      0.00000000	      0.00000000	      0.00000000	      0.00000000	      0.00000000	      0.00000000	      0.00000000
      6.41000000	      0.00000000	     -0.00000000	      0.00000000	      0.00000000	      0.00000000	      0.00000000	      0.00000000	      0.00000000	      0.00000000	    -19.33246803	     79.60604095	   -495.86264038	   -311.86645427	  -1176.97555911	      0.00000000	      0.00000000	      0.00000000	   1705.91862550	    -11.29102047	    -66.31621453	   -447.45803833	   -347.45973630	   -706.53548601	      0.00000000	      0.00000000	     -0.00000000	  -4313.77186861	      0.00000000	     -0.00000000	      0.00000000	      0.00000000	      0.00000000	      0.00000000	      0.00000000	      0.00000000	      0.00000000
